<?xml version="1.0" encoding="UTF-8" standalone="no"?>
<svg
   xmlns:dc="http://purl.org/dc/elements/1.1/"
   xmlns:cc="http://creativecommons.org/ns#"
   xmlns:rdf="http://www.w3.org/1999/02/22-rdf-syntax-ns#"
   xmlns:svg="http://www.w3.org/2000/svg"
   xmlns="http://www.w3.org/2000/svg"
   xmlns:sodipodi="http://sodipodi.sourceforge.net/DTD/sodipodi-0.dtd"
   xmlns:inkscape="http://www.inkscape.org/namespaces/inkscape"
   version="1.1"
   id="Capa_1"
   x="0px"
   y="0px"
   viewBox="0 0 512 512"
   style="enable-background:new 0 0 512 512;"
   xml:space="preserve"
   sodipodi:docname="notes.svg"
   inkscape:version="1.0.1 (3bc2e813f5, 2020-09-07)"
   inkscape:export-filename="/home/vofy/Downloads/notes.png"
   inkscape:export-xdpi="96"
   inkscape:export-ydpi="96"><metadata
   id="metadata87"><rdf:RDF><cc:Work
       rdf:about=""><dc:format>image/svg+xml</dc:format><dc:type
         rdf:resource="http://purl.org/dc/dcmitype/StillImage" /></cc:Work></rdf:RDF></metadata><defs
   id="defs85" /><sodipodi:namedview
   pagecolor="#ffffff"
   bordercolor="#666666"
   borderopacity="1"
   objecttolerance="10"
   gridtolerance="10"
   guidetolerance="10"
   inkscape:pageopacity="0"
   inkscape:pageshadow="2"
   inkscape:window-width="1920"
   inkscape:window-height="1025"
   id="namedview83"
   showgrid="false"
   inkscape:zoom="1.02"
   inkscape:cx="-23.367639"
   inkscape:cy="215.90908"
   inkscape:window-x="2960"
   inkscape:window-y="25"
   inkscape:window-maximized="1"
   inkscape:current-layer="Capa_1"
   inkscape:document-rotation="0" />
<linearGradient
   id="SVGID_1_"
   gradientUnits="userSpaceOnUse"
   x1="338.7359"
   y1="219.6922"
   x2="662.6459"
   y2="-18.3279"
   gradientTransform="matrix(1.0039 0 0 -1.0039 0.1922 516.5606)">
	<stop
   offset="0"
   style="stop-color:#B8DE6F"
   id="stop2" />
	<stop
   offset="1"
   style="stop-color:#8AA753"
   id="stop4" />
</linearGradient>
<path
   style="fill:#ffe0cc;fill-opacity:1"
   d="M453.384,20.5l58.354,381.648c1.887,12.344-6.599,23.894-18.943,25.782l-381.648,58.354  c-12.344,1.887-23.894-6.599-25.782-18.943L27.011,85.693c-1.887-12.344,6.599-23.894,18.943-25.782L427.602,1.557  C439.946-0.33,451.496,8.156,453.384,20.5z"
   id="path7" />
<linearGradient
   id="SVGID_2_"
   gradientUnits="userSpaceOnUse"
   x1="322.3236"
   y1="198.6866"
   x2="627.2736"
   y2="-63.1735"
   gradientTransform="matrix(1.0039 0 0 -1.0039 0.1922 516.5606)">
	<stop
   offset="0"
   style="stop-color:#FE7695"
   id="stop9" />
	<stop
   offset="1"
   style="stop-color:#FE547B"
   id="stop11" />
</linearGradient>
<path
   style="fill:#ffbf99;fill-opacity:1"
   d="M457.455,50.956l29.261,384.973c0.947,12.452-8.391,23.325-20.842,24.272L80.901,489.462  c-12.452,0.947-23.325-8.391-24.272-20.842L27.368,83.647c-0.947-12.452,8.391-23.325,20.842-24.272l384.973-29.261  C445.635,29.167,456.509,38.504,457.455,50.956z"
   id="path14" />
<linearGradient
   id="SVGID_3_"
   gradientUnits="userSpaceOnUse"
   x1="304.369"
   y1="178.9728"
   x2="588.5989"
   y2="-105.2572"
   gradientTransform="matrix(1.0039 0 0 -1.0039 0.1922 516.5606)">
	<stop
   offset="0"
   style="stop-color:#67DCDC"
   id="stop16" />
	<stop
   offset="1"
   style="stop-color:#019394"
   id="stop18" />
</linearGradient>
<path
   style="fill:#ff9f66;fill-opacity:1"
   d="M459.207,81.633v386.083c0,12.488-10.135,22.622-22.622,22.622H50.502  c-12.488,0-22.622-10.135-22.622-22.622V81.633c0-12.488,10.135-22.622,22.622-22.622h386.083  C449.073,59.01,459.207,69.146,459.207,81.633z"
   id="path21" />
<linearGradient
   id="SVGID_4_"
   gradientUnits="userSpaceOnUse"
   x1="228.5151"
   y1="284.5429"
   x2="228.5151"
   y2="-203.4571"
   gradientTransform="matrix(1.0039 0 0 -1.0039 0.1922 516.5606)">
	<stop
   offset="0"
   style="stop-color:#FCC344"
   id="stop23" />
	<stop
   offset="1"
   style="stop-color:#F7AE3D"
   id="stop25" />
</linearGradient>
<path
   style="fill:#fa6000;fill-opacity:1"
   d="M314.922,510.62L20.926,488.501c-12.459-0.938-21.798-11.797-20.861-24.256L29.029,79.25  c0.938-12.459,11.797-21.798,24.256-20.861l384.996,28.964c12.459,0.938,21.798,11.797,20.862,24.256L436.58,411.51  c-0.26,3.452-1.867,6.663-4.474,8.94l-94.716,82.691C331.202,508.541,323.11,511.235,314.922,510.62z"
   id="path28" />
<g
   id="g36">
	
		<rect
   x="74.864"
   y="201.706"
   transform="matrix(-0.9971 -0.0756 0.0756 -0.9971 467.3999 446.2027)"
   style="fill:#FFF2EB;"
   width="334.564"
   height="25.096"
   id="rect30" />
	
		<rect
   x="70.035"
   y="265.406"
   transform="matrix(-0.9971 -0.0756 0.0756 -0.9971 452.9404 573.0537)"
   style="fill:#FFF2EB;"
   width="334.564"
   height="25.096"
   id="rect32" />
	
		<rect
   x="65.323"
   y="325.808"
   transform="matrix(-0.9971 -0.0756 0.0756 -0.9971 352.1519 690.0431)"
   style="fill:#FFF2EB;"
   width="247.628"
   height="25.096"
   id="rect34" />
</g>
<linearGradient
   id="SVGID_5_"
   gradientUnits="userSpaceOnUse"
   x1="184.4758"
   y1="54.4429"
   x2="184.4758"
   y2="7.3929"
   gradientTransform="matrix(1.0039,0,0,-1.0039,-485.06027,322.11229)">
	<stop
   offset="0"
   style="stop-color:#FCC344;stop-opacity:0"
   id="stop38" />
	<stop
   offset="1"
   style="stop-color:#D48000"
   id="stop40" />
</linearGradient>

<linearGradient
   id="SVGID_6_"
   gradientUnits="userSpaceOnUse"
   x1="356.8396"
   y1="71.3947"
   x2="424.2696"
   y2="-7.0052"
   gradientTransform="matrix(1.0039 0 0 -1.0039 0.1922 516.5606)">
	<stop
   offset="0"
   style="stop-color:#FCC344"
   id="stop45" />
	<stop
   offset="1"
   style="stop-color:#D48000"
   id="stop47" />
</linearGradient>
<path
   style="fill:#ffb180;fill-opacity:1"
   d="M435.019,416.811c0,0-0.808,1.838-3.63,4.265c-1.048,0.902-93.444,81.58-93.444,81.58  c-6.542,5.711-15.1,8.559-23.76,7.908l0,0l0,0c7.475,0.562,13.991-5.042,14.553-12.517l4.978-66.171  c0.938-12.459,11.797-21.798,24.256-20.861L435.019,416.811z"
   id="path50" />
<g
   id="g52">
</g>
<g
   id="g54">
</g>
<g
   id="g56">
</g>
<g
   id="g58">
</g>
<g
   id="g60">
</g>
<g
   id="g62">
</g>
<g
   id="g64">
</g>
<g
   id="g66">
</g>
<g
   id="g68">
</g>
<g
   id="g70">
</g>
<g
   id="g72">
</g>
<g
   id="g74">
</g>
<g
   id="g76">
</g>
<g
   id="g78">
</g>
<g
   id="g80">
</g>
</svg>
